<?xml version="1.0" standalone="no"?>
<!DOCTYPE svg PUBLIC "-//W3C//DTD SVG 20010904//EN"
 "http://www.w3.org/TR/2001/REC-SVG-20010904/DTD/svg10.dtd">
<svg version="1.0" xmlns="http://www.w3.org/2000/svg"
 width="400.000000pt" height="400.000000pt" viewBox="0 0 400.000000 400.000000"
 preserveAspectRatio="xMidYMid meet">
<metadata>
Created by potrace 1.11, written by Peter Selinger 2001-2013
</metadata>
<g transform="translate(0.000000,400.000000) scale(0.100000,-0.100000)"
fill="#000000" stroke="none">
<path d="M2 2279 l3 -1721 455 -279 455 -279 1543 0 1542 0 0 2000 0 2000
-2000 0 -2000 0 2 -1721z m2385 876 c98 -44 172 -146 220 -301 26 -85 26 -343
-1 -429 -53 -171 -144 -272 -263 -291 -43 -7 -235 41 -302 75 -104 54 -167
178 -186 361 -17 178 65 491 150 570 22 21 37 25 98 27 40 1 88 7 107 12 48
13 115 4 177 -24z m-1572 -10 c52 -13 110 -31 130 -40 32 -16 35 -21 35 -59 0
-29 26 -105 92 -265 l92 -224 18 54 c10 30 46 144 80 254 68 222 99 302 123
311 9 4 62 -1 118 -10 56 -8 127 -18 157 -21 31 -3 66 -11 79 -18 l24 -12 -2
-431 c-2 -380 0 -435 14 -465 18 -38 8 -84 -20 -95 -20 -8 -159 21 -203 43
l-36 18 2 315 c2 295 1 313 -14 286 -22 -40 -67 -172 -114 -338 -34 -120 -38
-145 -33 -206 6 -67 5 -70 -21 -87 -23 -15 -40 -17 -110 -11 -139 10 -206 43
-206 101 0 30 -160 469 -193 530 -15 28 -16 17 -17 -218 0 -198 3 -255 15
-284 17 -41 20 -106 5 -134 -13 -23 -64 -25 -155 -5 -108 23 -97 -35 -96 517
2 483 2 484 24 507 26 28 59 26 212 -13z m2096 14 c100 -27 108 -36 86 -97
-42 -117 -6 -685 49 -770 41 -64 101 24 130 193 23 131 27 562 5 612 -12 29
-11 36 4 59 16 25 21 26 74 21 31 -2 83 -13 114 -23 l57 -18 0 -265 c-1 -427
-40 -631 -140 -714 -51 -44 -86 -44 -238 -2 -167 45 -191 56 -219 99 -72 112
-117 471 -94 750 16 188 24 195 172 155z m-1473 -1374 c69 -69 77 -80 76 -114
-2 -49 -26 -94 -85 -156 l-48 -51 64 -57 c43 -39 69 -71 81 -102 16 -42 16
-50 1 -110 -9 -37 -32 -90 -52 -120 -68 -101 -234 -240 -333 -277 -39 -15
-104 4 -215 65 l-79 42 1 429 c1 236 4 433 7 438 3 4 28 8 55 8 29 0 65 8 87
19 53 27 176 63 241 70 91 11 114 1 199 -84z m1520 51 c31 -19 68 -46 82 -60
23 -26 24 -27 7 -55 -14 -24 -17 -56 -17 -189 l0 -161 42 -3 c38 -3 45 -8 95
-73 29 -38 53 -78 53 -87 0 -27 -42 -49 -120 -60 l-71 -11 2 -169 c2 -160 1
-170 -19 -190 -39 -39 -113 -18 -200 58 -41 34 -43 40 -37 73 12 66 17 191 7
191 -5 0 -71 -16 -146 -35 -75 -19 -147 -35 -159 -35 -33 0 -117 44 -161 84
-33 31 -36 37 -25 58 6 13 26 39 44 58 18 19 93 121 165 225 291 417 302 430
368 421 18 -3 58 -20 90 -40z m-963 -20 c139 -49 179 -77 194 -136 5 -19 11
-92 14 -163 6 -126 6 -128 -18 -143 -20 -13 -33 -14 -77 -5 -29 6 -77 23 -106
36 l-53 25 7 114 c8 137 5 151 -31 134 -51 -23 -83 -131 -64 -217 13 -61 45
-92 169 -162 164 -92 204 -147 204 -278 0 -121 -71 -200 -198 -221 -48 -8 -77
-6 -155 11 -53 11 -104 23 -114 25 -39 12 -76 57 -107 131 -18 42 -41 89 -53
104 -19 27 -19 29 -3 53 15 23 23 26 80 26 79 0 167 -16 178 -33 4 -6 10 -32
14 -57 10 -67 31 -112 50 -108 35 6 58 54 58 120 1 90 -18 116 -126 174 -183
100 -248 177 -250 297 -1 53 5 77 29 130 51 108 135 187 200 187 17 0 89 -20
158 -44z"/>
<path d="M2287 3027 c-9 -7 -26 -34 -37 -62 -29 -69 -46 -85 -80 -79 -25 6
-28 3 -43 -53 -64 -228 1 -543 112 -543 55 0 90 51 121 182 61 254 13 621 -73
555z"/>
<path d="M1212 1670 c-29 -10 -68 -28 -87 -40 -34 -21 -35 -23 -35 -87 l0 -65
43 33 c67 54 157 146 157 163 0 20 -13 20 -78 -4z"/>
<path d="M1280 1304 c-30 -8 -84 -29 -120 -47 l-65 -32 -3 -112 c-1 -62 1
-113 6 -113 20 0 101 61 140 105 49 56 105 164 100 193 -3 19 -5 19 -58 6z"/>
<path d="M2716 1368 c-38 -56 -63 -99 -55 -96 8 3 40 13 72 22 l57 17 0 79 c0
44 -1 80 -2 80 -2 -1 -34 -46 -72 -102z"/>
</g>
</svg>
